<?xml version="1.0" encoding="UTF-8" standalone="no"?>
<!DOCTYPE svg PUBLIC "-//W3C//DTD SVG 1.1//EN"
 "http://www.w3.org/Graphics/SVG/1.1/DTD/svg11.dtd">
<!-- Generated by graphviz version 2.40.1 (20161225.0304)
 -->
<!-- Title: dfa Pages: 1 -->
<svg width="256pt" height="206pt"
 viewBox="0.00 0.00 256.16 206.00" xmlns="http://www.w3.org/2000/svg" xmlns:xlink="http://www.w3.org/1999/xlink">
<g id="graph0" class="graph" transform="scale(1 1) rotate(0) translate(4 202)">
<title>dfa</title>
<polygon fill="#ffffff" stroke="transparent" points="-4,4 -4,-202 252.1586,-202 252.1586,4 -4,4"/>
<!-- _START -->
<!-- S_1 -->
<g id="node2" class="node">
<title>S_1</title>
<ellipse fill="none" stroke="#000000" cx="58.6" cy="-99" rx="18" ry="18"/>
<text text-anchor="start" x="53.8759" y="-95.8" font-family="Times,serif" font-style="italic" font-size="14.00" fill="#000000">s</text>
<text text-anchor="start" x="59.3241" y="-95.8" font-family="Times,serif" baseline-shift="sub" font-size="8.00" fill="#000000">1</text>
</g>
<!-- _START&#45;&gt;S_1 -->
<g id="edge1" class="edge">
<title>_START&#45;&gt;S_1</title>
<path fill="none" stroke="#000000" d="M3.6898,-99C8.0522,-99 19.3107,-99 30.5058,-99"/>
<polygon fill="#000000" stroke="#000000" points="30.5696,-102.5001 40.5696,-99 30.5696,-95.5001 30.5696,-102.5001"/>
</g>
<!-- S_2 -->
<g id="node3" class="node">
<title>S_2</title>
<ellipse fill="none" stroke="#000000" cx="146.1586" cy="-180" rx="18" ry="18"/>
<text text-anchor="start" x="141.4345" y="-176.8" font-family="Times,serif" font-style="italic" font-size="14.00" fill="#000000">s</text>
<text text-anchor="start" x="146.8827" y="-176.8" font-family="Times,serif" baseline-shift="sub" font-size="8.00" fill="#000000">2</text>
</g>
<!-- S_1&#45;&gt;S_2 -->
<g id="edge2" class="edge">
<title>S_1&#45;&gt;S_2</title>
<path fill="none" stroke="#000000" d="M71.8983,-111.3022C86.0411,-124.3856 108.609,-145.2631 125.158,-160.5724"/>
<polygon fill="#000000" stroke="#000000" points="123.0177,-163.3605 132.7352,-167.5821 127.7713,-158.222 123.0177,-163.3605"/>
<text text-anchor="middle" x="102.3793" y="-145.6" font-family="Monospace" font-size="8.00" fill="#000000">[a&#45;c]</text>
</g>
<!-- S_3 -->
<g id="node4" class="node">
<title>S_3</title>
<ellipse fill="none" stroke="#000000" cx="146.1586" cy="-126" rx="18" ry="18"/>
<text text-anchor="start" x="141.4345" y="-122.8" font-family="Times,serif" font-style="italic" font-size="14.00" fill="#000000">s</text>
<text text-anchor="start" x="146.8827" y="-122.8" font-family="Times,serif" baseline-shift="sub" font-size="8.00" fill="#000000">3</text>
</g>
<!-- S_1&#45;&gt;S_3 -->
<g id="edge3" class="edge">
<title>S_1&#45;&gt;S_3</title>
<path fill="none" stroke="#000000" d="M75.8988,-104.3343C88.2509,-108.1433 105.108,-113.3414 119.2142,-117.6913"/>
<polygon fill="#000000" stroke="#000000" points="118.3084,-121.0745 128.8958,-120.6768 120.3712,-114.3854 118.3084,-121.0745"/>
<text text-anchor="middle" x="102.3793" y="-115.6" font-family="Monospace" font-size="8.00" fill="#000000">[d&#45;f]</text>
</g>
<!-- S_4 -->
<g id="node5" class="node">
<title>S_4</title>
<ellipse fill="none" stroke="#000000" cx="146.1586" cy="-72" rx="18" ry="18"/>
<text text-anchor="start" x="141.4345" y="-68.8" font-family="Times,serif" font-style="italic" font-size="14.00" fill="#000000">s</text>
<text text-anchor="start" x="146.8827" y="-68.8" font-family="Times,serif" baseline-shift="sub" font-size="8.00" fill="#000000">4</text>
</g>
<!-- S_1&#45;&gt;S_4 -->
<g id="edge4" class="edge">
<title>S_1&#45;&gt;S_4</title>
<path fill="none" stroke="#000000" d="M75.8988,-93.6657C88.2509,-89.8567 105.108,-84.6586 119.2142,-80.3087"/>
<polygon fill="#000000" stroke="#000000" points="120.3712,-83.6146 128.8958,-77.3232 118.3084,-76.9255 120.3712,-83.6146"/>
<text text-anchor="middle" x="102.3793" y="-88.6" font-family="Monospace" font-size="8.00" fill="#000000">[g&#45;i]</text>
</g>
<!-- S_5 -->
<g id="node6" class="node">
<title>S_5</title>
<ellipse fill="none" stroke="#000000" cx="146.1586" cy="-18" rx="18" ry="18"/>
<text text-anchor="start" x="141.4345" y="-14.8" font-family="Times,serif" font-style="italic" font-size="14.00" fill="#000000">s</text>
<text text-anchor="start" x="146.8827" y="-14.8" font-family="Times,serif" baseline-shift="sub" font-size="8.00" fill="#000000">5</text>
</g>
<!-- S_1&#45;&gt;S_5 -->
<g id="edge5" class="edge">
<title>S_1&#45;&gt;S_5</title>
<path fill="none" stroke="#000000" d="M71.8983,-86.6978C86.0411,-73.6144 108.609,-52.7369 125.158,-37.4276"/>
<polygon fill="#000000" stroke="#000000" points="127.7713,-39.778 132.7352,-30.4179 123.0177,-34.6395 127.7713,-39.778"/>
<text text-anchor="middle" x="102.3793" y="-64.6" font-family="Monospace" font-size="8.00" fill="#000000">[j&#45;l]</text>
</g>
<!-- S_6 -->
<g id="node7" class="node">
<title>S_6</title>
<ellipse fill="none" stroke="#000000" cx="226.1586" cy="-163" rx="18" ry="18"/>
<ellipse fill="none" stroke="#000000" cx="226.1586" cy="-163" rx="22" ry="22"/>
<text text-anchor="start" x="221.4345" y="-159.8" font-family="Times,serif" font-style="italic" font-size="14.00" fill="#000000">s</text>
<text text-anchor="start" x="226.8827" y="-159.8" font-family="Times,serif" baseline-shift="sub" font-size="8.00" fill="#000000">6</text>
</g>
<!-- S_2&#45;&gt;S_6 -->
<g id="edge6" class="edge">
<title>S_2&#45;&gt;S_6</title>
<path fill="none" stroke="#000000" d="M163.9132,-176.2271C172.8895,-174.3197 184.0574,-171.9465 194.4453,-169.7391"/>
<polygon fill="#000000" stroke="#000000" points="195.4092,-173.1125 204.4633,-167.6103 193.9542,-166.2654 195.4092,-173.1125"/>
<text text-anchor="middle" x="184.1586" y="-173.6" font-family="Monospace" font-size="8.00" fill="#000000">x</text>
</g>
<!-- S_3&#45;&gt;S_6 -->
<g id="edge7" class="edge">
<title>S_3&#45;&gt;S_6</title>
<path fill="none" stroke="#000000" d="M162.7346,-133.6664C172.5316,-138.1975 185.223,-144.0673 196.6761,-149.3643"/>
<polygon fill="#000000" stroke="#000000" points="195.3692,-152.6161 205.9147,-153.6372 198.3076,-146.2627 195.3692,-152.6161"/>
<text text-anchor="middle" x="184.1586" y="-145.6" font-family="Monospace" font-size="8.00" fill="#000000">x</text>
</g>
<!-- S_7 -->
<g id="node8" class="node">
<title>S_7</title>
<ellipse fill="none" stroke="#000000" cx="226.1586" cy="-86" rx="18" ry="18"/>
<ellipse fill="none" stroke="#000000" cx="226.1586" cy="-86" rx="22" ry="22"/>
<text text-anchor="start" x="221.4345" y="-82.8" font-family="Times,serif" font-style="italic" font-size="14.00" fill="#000000">s</text>
<text text-anchor="start" x="226.8827" y="-82.8" font-family="Times,serif" baseline-shift="sub" font-size="8.00" fill="#000000">7</text>
</g>
<!-- S_3&#45;&gt;S_7 -->
<g id="edge8" class="edge">
<title>S_3&#45;&gt;S_7</title>
<path fill="none" stroke="#000000" d="M162.3478,-117.9054C172.363,-112.8978 185.5094,-106.3246 197.2656,-100.4465"/>
<polygon fill="#000000" stroke="#000000" points="198.9304,-103.5273 206.3094,-95.9246 195.7999,-97.2663 198.9304,-103.5273"/>
<text text-anchor="middle" x="184.1586" y="-108.6" font-family="Monospace" font-size="8.00" fill="#000000">y</text>
</g>
<!-- S_4&#45;&gt;S_7 -->
<g id="edge9" class="edge">
<title>S_4&#45;&gt;S_7</title>
<path fill="none" stroke="#000000" d="M163.9132,-75.1071C172.8895,-76.6779 184.0574,-78.6323 194.4453,-80.4502"/>
<polygon fill="#000000" stroke="#000000" points="194.0096,-83.927 204.4633,-82.2033 195.2163,-77.0318 194.0096,-83.927"/>
<text text-anchor="middle" x="184.1586" y="-80.6" font-family="Monospace" font-size="8.00" fill="#000000">y</text>
</g>
<!-- S_8 -->
<g id="node9" class="node">
<title>S_8</title>
<ellipse fill="none" stroke="#000000" cx="226.1586" cy="-23" rx="18" ry="18"/>
<ellipse fill="none" stroke="#000000" cx="226.1586" cy="-23" rx="22" ry="22"/>
<text text-anchor="start" x="221.4345" y="-19.8" font-family="Times,serif" font-style="italic" font-size="14.00" fill="#000000">s</text>
<text text-anchor="start" x="226.8827" y="-19.8" font-family="Times,serif" baseline-shift="sub" font-size="8.00" fill="#000000">8</text>
</g>
<!-- S_4&#45;&gt;S_8 -->
<g id="edge10" class="edge">
<title>S_4&#45;&gt;S_8</title>
<path fill="none" stroke="#000000" d="M161.5834,-62.5523C172.0328,-56.152 186.1354,-47.5142 198.4957,-39.9435"/>
<polygon fill="#000000" stroke="#000000" points="200.4115,-42.8745 207.1109,-34.6667 196.7553,-36.9052 200.4115,-42.8745"/>
<text text-anchor="middle" x="184.1586" y="-50.6" font-family="Monospace" font-size="8.00" fill="#000000">z</text>
</g>
<!-- S_5&#45;&gt;S_8 -->
<g id="edge11" class="edge">
<title>S_5&#45;&gt;S_8</title>
<path fill="none" stroke="#000000" d="M164.3118,-19.1346C173.0709,-19.682 183.846,-20.3555 193.9347,-20.986"/>
<polygon fill="#000000" stroke="#000000" points="193.8876,-24.4898 204.0865,-21.6205 194.3243,-17.5034 193.8876,-24.4898"/>
<text text-anchor="middle" x="184.1586" y="-22.6" font-family="Monospace" font-size="8.00" fill="#000000">z</text>
</g>
</g>
</svg>
